<svg width="1024" height="1024" viewBox="0 0 1024 1024" fill="none" xmlns="http://www.w3.org/2000/svg">
<path d="M740.035 743.576L740.035 216.747C740.035 179.226 709.777 148.809 672.452 148.809C635.127 148.809 604.87 179.226 604.87 216.747L604.87 743.576C604.87 781.098 635.127 811.515 672.452 811.515C709.777 811.515 740.035 781.098 740.035 743.576ZM381.319 860.806L381.319 216.747C381.319 179.226 351.061 148.809 313.736 148.809C276.412 148.809 246.154 179.226 246.154 216.747L246.154 860.806C246.154 898.327 276.412 928.744 313.736 928.744C351.061 928.744 381.319 898.327 381.319 860.806ZM560.677 686.883L560.677 216.729C560.677 179.207 530.419 148.79 493.094 148.79C455.769 148.79 425.512 179.207 425.512 216.729L425.512 686.883C425.512 724.404 455.769 754.821 493.094 754.821C530.419 754.821 560.677 724.404 560.677 686.883Z" fill="#FAE2BE"/>
<path d="M758.929 713.889L758.929 187.06C758.929 149.539 728.671 119.121 691.346 119.121C654.021 119.121 623.764 149.539 623.764 187.06L623.764 713.889C623.764 751.41 654.021 781.827 691.346 781.827C728.671 781.827 758.929 751.41 758.929 713.889ZM400.213 831.118L400.213 187.06C400.213 149.539 369.955 119.121 332.63 119.121C295.306 119.121 265.048 149.539 265.048 187.06L265.048 831.118C265.048 868.639 295.306 899.057 332.63 899.057C369.955 899.057 400.213 868.639 400.213 831.118ZM579.571 657.195L579.571 187.041C579.571 149.52 549.313 119.103 511.988 119.103C474.664 119.103 444.406 149.52 444.406 187.041L444.406 657.195C444.406 694.717 474.664 725.134 511.988 725.134C549.313 725.134 579.571 694.717 579.571 657.195Z" fill="#0DC18B"/>
<path d="M777.818 703.094L777.818 176.266C777.818 138.744 747.561 108.327 710.236 108.327C672.911 108.327 642.653 138.744 642.653 176.266L642.653 703.094C642.653 740.616 672.911 771.033 710.236 771.033C747.561 771.033 777.818 740.616 777.818 703.094ZM419.103 820.324L419.103 176.266C419.103 138.744 388.845 108.327 351.52 108.327C314.195 108.327 283.937 138.744 283.937 176.266L283.938 820.324C283.938 857.845 314.195 888.262 351.52 888.262C388.845 888.262 419.103 857.845 419.103 820.324ZM598.46 646.401L598.46 176.247C598.46 138.725 568.203 108.308 530.878 108.308C493.553 108.308 463.295 138.725 463.295 176.247L463.295 646.401C463.295 683.922 493.553 714.339 530.878 714.339C568.203 714.339 598.46 683.922 598.46 646.401Z" fill="#0DC8F5"/>
</svg>
