<svg width="479" height="109" viewBox="0 0 479 109" fill="none" xmlns="http://www.w3.org/2000/svg">
<path d="M55.0787 69.5043L55.0787 15.9983C55.0787 12.1875 52.0057 9.09826 48.2149 9.09826C44.4241 9.09826 41.351 12.1875 41.351 15.9983L41.351 69.5043C41.351 73.3151 44.4241 76.4043 48.2149 76.4043C52.0057 76.4043 55.0787 73.3151 55.0787 69.5043ZM18.6466 81.4104L18.6466 15.9983C18.6466 12.1875 15.5736 9.09826 11.7828 9.09826C7.992 9.09826 4.91895 12.1875 4.91895 15.9983L4.91895 81.4104C4.91895 85.2212 7.992 88.3104 11.7828 88.3104C15.5736 88.3104 18.6466 85.2212 18.6466 81.4104ZM36.8627 63.7464L36.8627 15.9964C36.8627 12.1856 33.7896 9.09635 29.9988 9.09635C26.208 9.09635 23.135 12.1856 23.135 15.9964L23.135 63.7464C23.135 67.5571 26.208 70.6464 29.9988 70.6464C33.7896 70.6464 36.8627 67.5571 36.8627 63.7464Z" fill="#0DC18B"/>
<path d="M56.9972 68.408L56.9972 14.902C56.9972 11.0912 53.9241 8.00194 50.1333 8.00194C46.3425 8.00194 43.2695 11.0912 43.2695 14.902L43.2695 68.408C43.2695 72.2188 46.3425 75.308 50.1333 75.308C53.9241 75.308 56.9972 72.2188 56.9972 68.408ZM20.5651 80.3141L20.5651 14.902C20.5651 11.0912 17.4921 8.00194 13.7013 8.00194C9.91045 8.00194 6.8374 11.0912 6.8374 14.902L6.8374 80.3141C6.8374 84.1249 9.91045 87.2141 13.7013 87.2141C17.4921 87.2141 20.5651 84.1249 20.5651 80.3141ZM38.7811 62.6501L38.7811 14.9001C38.7811 11.0893 35.7081 8.00004 31.9173 8.00004C28.1265 8.00004 25.0534 11.0893 25.0534 14.9001L25.0534 62.6501C25.0534 66.4608 28.1265 69.5501 31.9173 69.5501C35.7081 69.5501 38.7811 66.4608 38.7811 62.6501Z" fill="#0DC8F5"/>
<path d="M88.8546 34.1294C90.3751 34.1294 91.8586 34.3519 93.305 34.7969C94.7884 35.2049 96.0679 35.8354 97.1434 36.6883C98.256 35.9466 99.4984 35.3347 100.871 34.8526C102.28 34.3704 103.967 34.1294 105.933 34.1294C107.342 34.1294 108.714 34.3148 110.05 34.6857C111.422 35.0565 112.627 35.6499 113.666 36.4658C114.741 37.2446 115.594 38.3016 116.225 39.6367C116.855 40.9348 117.17 42.5295 117.17 44.4209V61.9444C116.799 62.0556 116.206 62.1669 115.39 62.2782C114.611 62.3894 113.795 62.445 112.942 62.445C112.126 62.445 111.385 62.3894 110.717 62.2782C110.087 62.1669 109.549 61.9444 109.104 61.6106C108.659 61.2768 108.307 60.8318 108.047 60.2755C107.824 59.6821 107.713 58.9218 107.713 57.9946V44.6991C107.713 43.5865 107.398 42.7891 106.767 42.307C106.137 41.7878 105.284 41.5282 104.208 41.5282C103.689 41.5282 103.133 41.658 102.54 41.9176C101.946 42.1401 101.501 42.3812 101.204 42.6408C101.241 42.7891 101.26 42.9375 101.26 43.0858C101.26 43.1971 101.26 43.3083 101.26 43.4196V61.9444C100.852 62.0556 100.24 62.1669 99.4243 62.2782C98.6454 62.3894 97.8481 62.445 97.0322 62.445C96.2163 62.445 95.4745 62.3894 94.807 62.2782C94.1765 62.1669 93.6387 61.9444 93.1937 61.6106C92.7487 61.2768 92.3963 60.8318 92.1367 60.2755C91.9142 59.6821 91.8029 58.9218 91.8029 57.9946V44.6991C91.8029 43.5865 91.4506 42.7891 90.746 42.307C90.0784 41.7878 89.2625 41.5282 88.2983 41.5282C87.6307 41.5282 87.0558 41.6394 86.5737 41.8619C86.0916 42.0474 85.6836 42.2328 85.3499 42.4182V61.9444C84.979 62.0556 84.3856 62.1669 83.5697 62.2782C82.7909 62.3894 81.975 62.445 81.122 62.445C80.3061 62.445 79.5643 62.3894 78.8968 62.2782C78.2663 62.1669 77.7286 61.9444 77.2835 61.6106C76.8385 61.2768 76.4861 60.8318 76.2265 60.2755C76.004 59.6821 75.8928 58.9218 75.8928 57.9946V41.1944C75.8928 40.193 76.0967 39.3957 76.5047 38.8023C76.9497 38.2089 77.5431 37.6526 78.2849 37.1334C79.5458 36.2433 81.1034 35.5201 82.9578 34.9638C84.8492 34.4075 86.8148 34.1294 88.8546 34.1294ZM132.563 61.9444C132.155 62.0185 131.543 62.1113 130.727 62.2225C129.949 62.3709 129.151 62.445 128.335 62.445C127.519 62.445 126.778 62.3894 126.11 62.2782C125.48 62.1669 124.942 61.9444 124.497 61.6106C124.052 61.2768 123.7 60.8318 123.44 60.2755C123.217 59.6821 123.106 58.9218 123.106 57.9946V25.7292C123.514 25.6551 124.107 25.5623 124.886 25.4511C125.702 25.3027 126.518 25.2286 127.334 25.2286C128.15 25.2286 128.873 25.2842 129.504 25.3955C130.171 25.5067 130.727 25.7292 131.172 26.063C131.618 26.3968 131.951 26.8604 132.174 27.4538C132.433 28.0101 132.563 28.7518 132.563 29.679V61.9444ZM150.102 55.992C150.732 55.992 151.418 55.9363 152.16 55.8251C152.939 55.6767 153.514 55.4913 153.885 55.2688V50.8184L149.879 51.1521C148.841 51.2263 147.988 51.4488 147.32 51.8197C146.653 52.1906 146.319 52.7469 146.319 53.4886C146.319 54.2303 146.597 54.8423 147.153 55.3244C147.747 55.7694 148.73 55.992 150.102 55.992ZM149.657 34.1294C151.66 34.1294 153.477 34.3333 155.109 34.7413C156.777 35.1493 158.187 35.7797 159.336 36.6327C160.523 37.4486 161.432 38.5056 162.062 39.8036C162.693 41.0646 163.008 42.5666 163.008 44.3097V56.7708C163.008 57.735 162.73 58.5324 162.174 59.1629C161.654 59.7563 161.024 60.2755 160.282 60.7205C157.872 62.1669 154.478 62.8901 150.102 62.8901C148.136 62.8901 146.356 62.7046 144.761 62.3338C143.204 61.9629 141.85 61.4066 140.7 60.6649C139.588 59.9231 138.716 58.9774 138.086 57.8277C137.492 56.6781 137.196 55.3429 137.196 53.8224C137.196 51.2634 137.956 49.2978 139.477 47.9256C140.997 46.5534 143.352 45.7004 146.542 45.3666L153.829 44.5878V44.1984C153.829 43.1229 153.347 42.3626 152.383 41.9176C151.456 41.4354 150.102 41.1944 148.322 41.1944C146.912 41.1944 145.54 41.3427 144.205 41.6394C142.87 41.9361 141.665 42.307 140.589 42.752C140.107 42.4182 139.699 41.9176 139.365 41.25C139.032 40.5454 138.865 39.8222 138.865 39.0804C138.865 38.1162 139.087 37.3559 139.532 36.7996C140.014 36.2062 140.737 35.7056 141.702 35.2976C142.777 34.8896 144.038 34.593 145.485 34.4075C146.968 34.2221 148.359 34.1294 149.657 34.1294ZM168.791 35.3532C169.161 35.242 169.736 35.1307 170.515 35.0194C171.331 34.9082 172.165 34.8526 173.018 34.8526C173.834 34.8526 174.557 34.9082 175.188 35.0194C175.856 35.1307 176.412 35.3532 176.857 35.687C177.302 36.0208 177.636 36.4844 177.858 37.0778C178.118 37.6341 178.248 38.3758 178.248 39.303V51.2634C178.248 52.784 178.618 53.878 179.36 54.5456C180.102 55.1761 181.177 55.4913 182.587 55.4913C183.44 55.4913 184.126 55.4171 184.645 55.2688C185.201 55.1204 185.628 54.9721 185.925 54.8237V35.3532C186.295 35.242 186.87 35.1307 187.649 35.0194C188.465 34.9082 189.299 34.8526 190.152 34.8526C190.968 34.8526 191.692 34.9082 192.322 35.0194C192.99 35.1307 193.546 35.3532 193.991 35.687C194.436 36.0208 194.77 36.4844 194.992 37.0778C195.252 37.6341 195.382 38.3758 195.382 39.303V56.2145C195.382 58.0688 194.603 59.4596 193.045 60.3867C191.747 61.2026 190.19 61.8146 188.372 62.2225C186.592 62.6676 184.645 62.8901 182.531 62.8901C180.528 62.8901 178.674 62.6676 176.968 62.2225C175.299 61.7775 173.853 61.0914 172.629 60.1642C171.405 59.237 170.459 58.0503 169.792 56.6039C169.124 55.1204 168.791 53.3403 168.791 51.2634V35.3532ZM210.626 61.9444C210.255 62.0556 209.662 62.1669 208.846 62.2782C208.067 62.3894 207.251 62.445 206.398 62.445C205.582 62.445 204.84 62.3894 204.173 62.2782C203.542 62.1669 203.005 61.9444 202.56 61.6106C202.115 61.2768 201.762 60.8318 201.503 60.2755C201.28 59.6821 201.169 58.9218 201.169 57.9946V41.3056C201.169 40.4526 201.317 39.7295 201.614 39.1361C201.948 38.5056 202.411 37.9493 203.005 37.4672C203.598 36.985 204.321 36.5585 205.174 36.1877C206.064 35.7797 207.01 35.4274 208.011 35.1307C209.013 34.834 210.051 34.6115 211.127 34.4631C212.202 34.2777 213.278 34.185 214.353 34.185C216.133 34.185 217.543 34.5373 218.581 35.242C219.62 35.9095 220.139 37.0221 220.139 38.5798C220.139 39.099 220.065 39.6182 219.916 40.1374C219.768 40.6195 219.582 41.0646 219.36 41.4725C218.581 41.4725 217.784 41.5096 216.968 41.5838C216.152 41.658 215.355 41.7692 214.576 41.9176C213.797 42.0659 213.055 42.2328 212.351 42.4182C211.683 42.5666 211.108 42.752 210.626 42.9745V61.9444ZM237.305 62.8901C235.117 62.8901 233.077 62.5934 231.186 62C229.331 61.3695 227.7 60.4424 226.29 59.2185C224.918 57.9946 223.824 56.4555 223.008 54.6012C222.229 52.7469 221.84 50.5773 221.84 48.0925C221.84 45.6448 222.229 43.5494 223.008 41.8063C223.824 40.0261 224.881 38.5798 226.179 37.4672C227.477 36.3175 228.96 35.483 230.629 34.9638C232.298 34.4075 234.004 34.1294 235.747 34.1294C237.713 34.1294 239.493 34.4261 241.088 35.0194C242.72 35.6128 244.11 36.4287 245.26 37.4672C246.447 38.5056 247.355 39.748 247.986 41.1944C248.653 42.6408 248.987 44.2169 248.987 45.9229C248.987 47.1839 248.635 48.1481 247.93 48.8157C247.226 49.4832 246.243 49.9097 244.982 50.0952L231.241 52.1535C231.649 53.3773 232.484 54.3045 233.745 54.935C235.006 55.5284 236.452 55.8251 238.084 55.8251C239.604 55.8251 241.032 55.6396 242.367 55.2688C243.739 54.8608 244.852 54.3972 245.705 53.878C246.298 54.2489 246.799 54.7681 247.207 55.4357C247.615 56.1032 247.819 56.8079 247.819 57.5496C247.819 59.2185 247.04 60.4609 245.483 61.2768C244.296 61.9073 242.961 62.3338 241.477 62.5563C239.994 62.7788 238.603 62.8901 237.305 62.8901ZM235.747 41.0275C234.857 41.0275 234.078 41.1758 233.411 41.4725C232.78 41.7692 232.261 42.1586 231.853 42.6408C231.445 43.0858 231.13 43.605 230.908 44.1984C230.722 44.7547 230.611 45.3295 230.574 45.9229L240.086 44.3653C239.975 43.6236 239.567 42.8818 238.863 42.1401C238.158 41.3984 237.12 41.0275 235.747 41.0275ZM263.163 61.9444C262.755 62.0185 262.143 62.1113 261.328 62.2225C260.549 62.3709 259.751 62.445 258.935 62.445C258.12 62.445 257.378 62.3894 256.71 62.2782C256.08 62.1669 255.542 61.9444 255.097 61.6106C254.652 61.2768 254.3 60.8318 254.04 60.2755C253.818 59.6821 253.706 58.9218 253.706 57.9946V25.7292C254.114 25.6551 254.708 25.5623 255.486 25.4511C256.302 25.3027 257.118 25.2286 257.934 25.2286C258.75 25.2286 259.473 25.2842 260.104 25.3955C260.771 25.5067 261.328 25.7292 261.773 26.063C262.218 26.3968 262.551 26.8604 262.774 27.4538C263.034 28.0101 263.163 28.7518 263.163 29.679V61.9444Z" fill="#E1E1E1"/>
<path d="M293.23 34.1294C294.75 34.1294 296.234 34.3519 297.68 34.7969C299.163 35.2049 300.443 35.8354 301.518 36.6883C302.631 35.9466 303.873 35.3347 305.246 34.8526C306.655 34.3704 308.342 34.1294 310.308 34.1294C311.717 34.1294 313.09 34.3148 314.425 34.6857C315.797 35.0565 317.002 35.6499 318.041 36.4658C319.116 37.2446 319.969 38.3016 320.6 39.6367C321.23 40.9348 321.545 42.5295 321.545 44.4209V61.9444C321.174 62.0556 320.581 62.1669 319.765 62.2782C318.986 62.3894 318.17 62.445 317.317 62.445C316.501 62.445 315.76 62.3894 315.092 62.2782C314.462 62.1669 313.924 61.9444 313.479 61.6106C313.034 61.2768 312.682 60.8318 312.422 60.2755C312.199 59.6821 312.088 58.9218 312.088 57.9946V44.6991C312.088 43.5865 311.773 42.7891 311.142 42.307C310.512 41.7878 309.659 41.5282 308.583 41.5282C308.064 41.5282 307.508 41.658 306.915 41.9176C306.321 42.1401 305.876 42.3812 305.579 42.6408C305.617 42.7891 305.635 42.9375 305.635 43.0858C305.635 43.1971 305.635 43.3083 305.635 43.4196V61.9444C305.227 62.0556 304.615 62.1669 303.799 62.2782C303.02 62.3894 302.223 62.445 301.407 62.445C300.591 62.445 299.85 62.3894 299.182 62.2782C298.552 62.1669 298.014 61.9444 297.569 61.6106C297.124 61.2768 296.771 60.8318 296.512 60.2755C296.289 59.6821 296.178 58.9218 296.178 57.9946V44.6991C296.178 43.5865 295.826 42.7891 295.121 42.307C294.453 41.7878 293.638 41.5282 292.673 41.5282C292.006 41.5282 291.431 41.6394 290.949 41.8619C290.467 42.0474 290.059 42.2328 289.725 42.4182V61.9444C289.354 62.0556 288.761 62.1669 287.945 62.2782C287.166 62.3894 286.35 62.445 285.497 62.445C284.681 62.445 283.939 62.3894 283.272 62.2782C282.641 62.1669 282.104 61.9444 281.659 61.6106C281.214 61.2768 280.861 60.8318 280.602 60.2755C280.379 59.6821 280.268 58.9218 280.268 57.9946V41.1944C280.268 40.193 280.472 39.3957 280.88 38.8023C281.325 38.2089 281.918 37.6526 282.66 37.1334C283.921 36.2433 285.478 35.5201 287.333 34.9638C289.224 34.4075 291.19 34.1294 293.23 34.1294ZM355.296 48.4819C355.296 50.7813 354.944 52.8396 354.239 54.6568C353.535 56.437 352.533 57.939 351.235 59.1629C349.974 60.3867 348.454 61.3139 346.674 61.9444C344.893 62.5748 342.909 62.8901 340.721 62.8901C338.533 62.8901 336.549 62.5563 334.769 61.8887C332.989 61.2212 331.449 60.2755 330.151 59.0516C328.89 57.7907 327.908 56.2701 327.203 54.4899C326.498 52.7098 326.146 50.7071 326.146 48.4819C326.146 46.2938 326.498 44.3097 327.203 42.5295C327.908 40.7493 328.89 39.2473 330.151 38.0235C331.449 36.7625 332.989 35.7983 334.769 35.1307C336.549 34.4631 338.533 34.1294 340.721 34.1294C342.909 34.1294 344.893 34.4817 346.674 35.1863C348.454 35.8539 349.974 36.8182 351.235 38.0791C352.533 39.303 353.535 40.805 354.239 42.5851C354.944 44.3653 355.296 46.3309 355.296 48.4819ZM335.826 48.4819C335.826 50.7442 336.252 52.4873 337.105 53.7111C337.995 54.8979 339.219 55.4913 340.777 55.4913C342.334 55.4913 343.521 54.8794 344.337 53.6555C345.19 52.4316 345.617 50.7071 345.617 48.4819C345.617 46.2567 345.19 44.5507 344.337 43.3639C343.484 42.1401 342.279 41.5282 340.721 41.5282C339.163 41.5282 337.958 42.1401 337.105 43.3639C336.252 44.5507 335.826 46.2567 335.826 48.4819ZM377.284 61.2768C376.764 61.6848 376.004 62.0185 375.003 62.2782C374.001 62.5378 372.87 62.6676 371.609 62.6676C370.163 62.6676 368.902 62.4821 367.826 62.1113C366.788 61.7404 366.065 61.147 365.657 60.3311C365.323 59.7006 364.915 58.8291 364.433 57.7165C363.988 56.5668 363.506 55.3059 362.987 53.9336C362.467 52.5244 361.93 51.0223 361.373 49.4276C360.817 47.8329 360.279 46.2567 359.76 44.6991C359.278 43.1414 358.833 41.6394 358.425 40.193C358.017 38.7467 357.683 37.4672 357.424 36.3546C357.943 35.8354 358.629 35.3903 359.482 35.0194C360.372 34.6115 361.336 34.4075 362.375 34.4075C363.673 34.4075 364.73 34.6857 365.546 35.242C366.399 35.7612 367.029 36.7625 367.437 38.246L369.607 46.7574C370.015 48.4263 370.404 49.9468 370.775 51.319C371.146 52.6542 371.424 53.6926 371.609 54.4343H371.887C372.592 51.6899 373.334 48.6488 374.113 45.311C374.891 41.9732 375.596 38.691 376.227 35.4645C376.857 35.1307 377.562 34.8711 378.34 34.6857C379.156 34.5002 379.935 34.4075 380.677 34.4075C381.975 34.4075 383.069 34.6857 383.959 35.242C384.849 35.7983 385.294 36.7625 385.294 38.1347C385.294 38.7281 385.146 39.5997 384.849 40.7493C384.59 41.8619 384.237 43.1414 383.792 44.5878C383.384 45.9971 382.884 47.4991 382.29 49.0938C381.734 50.6886 381.159 52.2462 380.566 53.7668C379.972 55.2873 379.379 56.7151 378.786 58.0503C378.229 59.3483 377.729 60.4238 377.284 61.2768ZM389.295 27.4538C389.295 26.0445 389.759 24.8577 390.686 23.8934C391.65 22.9292 392.911 22.4471 394.469 22.4471C396.026 22.4471 397.269 22.9292 398.196 23.8934C399.16 24.8577 399.642 26.0445 399.642 27.4538C399.642 28.8631 399.16 30.0498 398.196 31.0141C397.269 31.9783 396.026 32.4605 394.469 32.4605C392.911 32.4605 391.65 31.9783 390.686 31.0141C389.759 30.0498 389.295 28.8631 389.295 27.4538ZM399.197 61.9444C398.789 62.0185 398.177 62.1113 397.362 62.2225C396.583 62.3709 395.785 62.445 394.97 62.445C394.154 62.445 393.412 62.3894 392.744 62.2782C392.114 62.1669 391.576 61.9444 391.131 61.6106C390.686 61.2768 390.334 60.8318 390.074 60.2755C389.852 59.6821 389.74 58.9218 389.74 57.9946V35.3532C390.148 35.2791 390.742 35.1863 391.52 35.0751C392.336 34.9267 393.152 34.8526 393.968 34.8526C394.784 34.8526 395.507 34.9082 396.138 35.0194C396.805 35.1307 397.362 35.3532 397.807 35.687C398.252 36.0208 398.585 36.4844 398.808 37.0778C399.068 37.6341 399.197 38.3758 399.197 39.303V61.9444ZM419.515 62.8901C417.327 62.8901 415.287 62.5934 413.396 62C411.541 61.3695 409.909 60.4424 408.5 59.2185C407.128 57.9946 406.034 56.4555 405.218 54.6012C404.439 52.7469 404.05 50.5773 404.05 48.0925C404.05 45.6448 404.439 43.5494 405.218 41.8063C406.034 40.0261 407.091 38.5798 408.389 37.4672C409.687 36.3175 411.17 35.483 412.839 34.9638C414.508 34.4075 416.214 34.1294 417.957 34.1294C419.923 34.1294 421.703 34.4261 423.298 35.0194C424.93 35.6128 426.32 36.4287 427.47 37.4672C428.657 38.5056 429.565 39.748 430.196 41.1944C430.863 42.6408 431.197 44.2169 431.197 45.9229C431.197 47.1839 430.845 48.1481 430.14 48.8157C429.436 49.4832 428.453 49.9097 427.192 50.0952L413.451 52.1535C413.859 53.3773 414.694 54.3045 415.955 54.935C417.216 55.5284 418.662 55.8251 420.294 55.8251C421.814 55.8251 423.242 55.6396 424.577 55.2688C425.949 54.8608 427.062 54.3972 427.915 53.878C428.508 54.2489 429.009 54.7681 429.417 55.4357C429.825 56.1032 430.029 56.8079 430.029 57.5496C430.029 59.2185 429.25 60.4609 427.693 61.2768C426.506 61.9073 425.171 62.3338 423.687 62.5563C422.204 62.7788 420.813 62.8901 419.515 62.8901ZM417.957 41.0275C417.067 41.0275 416.288 41.1758 415.621 41.4725C414.99 41.7692 414.471 42.1586 414.063 42.6408C413.655 43.0858 413.34 43.605 413.117 44.1984C412.932 44.7547 412.821 45.3295 412.784 45.9229L422.296 44.3653C422.185 43.6236 421.777 42.8818 421.073 42.1401C420.368 41.3984 419.329 41.0275 417.957 41.0275ZM458.558 53.9336C458.558 56.7522 457.501 58.9589 455.387 60.5536C453.273 62.1483 450.157 62.9457 446.041 62.9457C444.483 62.9457 443.037 62.8345 441.702 62.6119C440.367 62.3894 439.217 62.0556 438.253 61.6106C437.326 61.1285 436.584 60.5351 436.027 59.8304C435.508 59.1258 435.249 58.2913 435.249 57.3271C435.249 56.437 435.434 55.6953 435.805 55.1019C436.176 54.4714 436.621 53.9522 437.14 53.5442C438.216 54.1376 439.439 54.6754 440.812 55.1575C442.221 55.6025 443.834 55.8251 445.651 55.8251C446.801 55.8251 447.673 55.6582 448.266 55.3244C448.897 54.9906 449.212 54.5456 449.212 53.9893C449.212 53.4701 448.989 53.0621 448.544 52.7654C448.099 52.4687 447.357 52.2277 446.319 52.0422L444.65 51.7084C441.424 51.078 439.013 50.0952 437.418 48.7601C435.861 47.3879 435.082 45.4408 435.082 42.9189C435.082 41.5467 435.378 40.3043 435.972 39.1917C436.565 38.0791 437.4 37.1519 438.475 36.4102C439.551 35.6685 440.83 35.0936 442.314 34.6857C443.834 34.2777 445.503 34.0737 447.32 34.0737C448.693 34.0737 449.972 34.185 451.159 34.4075C452.383 34.593 453.44 34.8896 454.33 35.2976C455.22 35.7056 455.924 36.2433 456.444 36.9109C456.963 37.5413 457.223 38.3016 457.223 39.1917C457.223 40.0447 457.056 40.7864 456.722 41.4169C456.425 42.0103 456.036 42.511 455.554 42.9189C455.257 42.7335 454.812 42.548 454.218 42.3626C453.625 42.1401 452.976 41.9547 452.271 41.8063C451.567 41.6209 450.844 41.4725 450.102 41.3613C449.397 41.25 448.748 41.1944 448.155 41.1944C446.931 41.1944 445.985 41.3427 445.318 41.6394C444.65 41.899 444.316 42.3255 444.316 42.9189C444.316 43.3269 444.502 43.6606 444.873 43.9202C445.244 44.1799 445.948 44.4209 446.987 44.6434L448.711 45.0328C452.271 45.8488 454.793 46.9799 456.277 48.4263C457.797 49.8356 458.558 51.6714 458.558 53.9336Z" fill="#0DC8F5"/>
</svg>
